<?xml version="1.0" standalone="no"?>
<svg
  width="600"
  height="600"
  viewBox="0 0 600 600"
  xmlns="http://www.w3.org/2000/svg"
>
  <g transform="translate(300,300)">
    <path d="M77.4,-97.4C116.2,-95.5,174.5,-100.9,186.2,-82.8C197.8,-64.8,162.7,-23.2,160,25.7C157.2,74.7,186.7,131,179.2,175.1C171.8,219.2,127.5,251.1,84.6,243.1C41.8,235.1,0.5,187.1,-48.1,170C-96.8,153,-152.7,166.9,-194.7,150.7C-236.7,134.5,-264.9,88.3,-252.8,47.8C-240.8,7.3,-188.6,-27.5,-155.2,-58.5C-121.8,-89.5,-107.1,-116.7,-84.4,-126C-61.6,-135.2,-30.8,-126.6,-5.8,-117.6C19.3,-108.7,38.6,-99.3,77.4,-97.4Z" fill="#fd8a3f" />
  </g>
</svg>
  